HIERARCHY
ROOT Junyuan_V1:Solving:Hips
{
	OFFSET 0.000000 0.000000 0.000000
	CHANNELS 6 Xposition Yposition Zposition Xrotation Yrotation Zrotation
	JOINT Junyuan_V1:Solving:Spine
	{
		OFFSET 0.000000 -8.943189 2.778120
		CHANNELS 6 Xposition Yposition Zposition Xrotation Yrotation Zrotation
		JOINT Junyuan_V1:Solving:Spine1
		{
			OFFSET 0.000000 -9.944814 1.753542
			CHANNELS 6 Xposition Yposition Zposition Xrotation Yrotation Zrotation
			JOINT Junyuan_V1:Solving:Spine2
			{
				OFFSET 0.000000 -10.059801 0.880121
				CHANNELS 6 Xposition Yposition Zposition Xrotation Yrotation Zrotation
				JOINT Junyuan_V1:Solving:Spine3
				{
					OFFSET 0.000000 -10.098228 0.000000
					CHANNELS 6 Xposition Yposition Zposition Xrotation Yrotation Zrotation
					JOINT Junyuan_V1:Solving:Neck
					{
						OFFSET 0.000000 -12.983437 -1.298342
						CHANNELS 6 Xposition Yposition Zposition Xrotation Yrotation Zrotation
						JOINT Junyuan_V1:Solving:Neck1
						{
							OFFSET 0.000000 -8.085114 -0.707354
							CHANNELS 6 Xposition Yposition Zposition Xrotation Yrotation Zrotation
							JOINT Junyuan_V1:Solving:Head
							{
								OFFSET 0.000000 -7.992695 -1.409326
								CHANNELS 6 Xposition Yposition Zposition Xrotation Yrotation Zrotation
								JOINT Junyuan_V1:Solving:HeadEnd
								{
									OFFSET 0.000000 -9.728081 0.000002
									CHANNELS 6 Xposition Yposition Zposition Xrotation Yrotation Zrotation
									End Site
									{
										OFFSET 0.000000 -9.728081 0.000002
									}
								}
							}
						}
					}
					JOINT Junyuan_V1:Solving:RightShoulder
					{
						OFFSET 0.000000 -9.273884 -6.154356
						CHANNELS 6 Xposition Yposition Zposition Xrotation Yrotation Zrotation
						JOINT Junyuan_V1:Solving:RightArm
						{
							OFFSET -19.110832 -0.000008 0.000000
							CHANNELS 6 Xposition Yposition Zposition Xrotation Yrotation Zrotation
							JOINT Junyuan_V1:Solving:RightForeArm
							{
								OFFSET -27.916382 -0.000008 0.000000
								CHANNELS 6 Xposition Yposition Zposition Xrotation Yrotation Zrotation
								JOINT Junyuan_V1:Solving:RightHand
								{
									OFFSET -21.757072 -0.000008 0.000000
									CHANNELS 6 Xposition Yposition Zposition Xrotation Yrotation Zrotation
									JOINT Junyuan_V1:Solving:RightHandThumb1
									{
										OFFSET -3.656471 2.766285 -2.718907
										CHANNELS 6 Xposition Yposition Zposition Xrotation Yrotation Zrotation
										End Site
										{
											OFFSET -5.307442 0.000000 -5.356520
										}
									}
									JOINT Junyuan_V1:Solving:RightHandMiddle1
									{
										OFFSET -9.750572 -0.000004 0.062504
										CHANNELS 6 Xposition Yposition Zposition Xrotation Yrotation Zrotation
										End Site
										{
											OFFSET -7.540642 -0.000004 0.000000
										}
									}
								}
							}
						}
					}
					JOINT Junyuan_V1:Solving:LeftShoulder
					{
						OFFSET 0.000000 -9.273884 -6.154356
						CHANNELS 6 Xposition Yposition Zposition Xrotation Yrotation Zrotation
						JOINT Junyuan_V1:Solving:LeftArm
						{
							OFFSET 19.110832 -0.000008 0.000000
							CHANNELS 6 Xposition Yposition Zposition Xrotation Yrotation Zrotation
							JOINT Junyuan_V1:Solving:LeftForeArm
							{
								OFFSET 27.916382 -0.000008 0.000000
								CHANNELS 6 Xposition Yposition Zposition Xrotation Yrotation Zrotation
								JOINT Junyuan_V1:Solving:LeftHand
								{
									OFFSET 21.757072 -0.000008 0.000000
									CHANNELS 6 Xposition Yposition Zposition Xrotation Yrotation Zrotation
									JOINT Junyuan_V1:Solving:LeftHandThumb1
									{
										OFFSET 3.656471 2.766285 -2.718907
										CHANNELS 6 Xposition Yposition Zposition Xrotation Yrotation Zrotation
										End Site
										{
											OFFSET 5.307442 0.000000 -5.356520
										}
									}
									JOINT Junyuan_V1:Solving:LeftHandMiddle1
									{
										OFFSET 9.750572 -0.000004 0.062504
										CHANNELS 6 Xposition Yposition Zposition Xrotation Yrotation Zrotation
										End Site
										{
											OFFSET 7.540642 -0.000004 0.000000
										}
									}
								}
							}
						}
					}
				}
			}
		}
	}
	JOINT Junyuan_V1:Solving:RightUpLeg
	{
		OFFSET -8.521003 0.000000 0.000000
		CHANNELS 6 Xposition Yposition Zposition Xrotation Yrotation Zrotation
		JOINT Junyuan_V1:Solving:RightLeg
		{
			OFFSET 0.000000 41.622898 -0.000006
			CHANNELS 6 Xposition Yposition Zposition Xrotation Yrotation Zrotation
			JOINT Junyuan_V1:Solving:RightFoot
			{
				OFFSET 0.000000 37.258389 -0.000006
				CHANNELS 6 Xposition Yposition Zposition Xrotation Yrotation Zrotation
				JOINT Junyuan_V1:Solving:RightForeFoot
				{
					OFFSET 0.000000 3.234154 -0.000000
					CHANNELS 6 Xposition Yposition Zposition Xrotation Yrotation Zrotation
					JOINT Junyuan_V1:Solving:RightToeBase
					{
						OFFSET 0.000000 0.000000 -12.665958
						CHANNELS 6 Xposition Yposition Zposition Xrotation Yrotation Zrotation
						JOINT Junyuan_V1:Solving:RightToeBaseEnd
						{
							OFFSET 0.000000 0.000000 -2.833065
							CHANNELS 6 Xposition Yposition Zposition Xrotation Yrotation Zrotation
							End Site
							{
								OFFSET 0.000000 -2.833061 0.000002
							}
						}
					}
				}
			}
		}
	}
	JOINT Junyuan_V1:Solving:LeftUpLeg
	{
		OFFSET 8.521003 0.000000 0.000000
		CHANNELS 6 Xposition Yposition Zposition Xrotation Yrotation Zrotation
		JOINT Junyuan_V1:Solving:LeftLeg
		{
			OFFSET 0.000000 41.622898 -0.000006
			CHANNELS 6 Xposition Yposition Zposition Xrotation Yrotation Zrotation
			JOINT Junyuan_V1:Solving:LeftFoot
			{
				OFFSET 0.000000 37.258389 -0.000006
				CHANNELS 6 Xposition Yposition Zposition Xrotation Yrotation Zrotation
				JOINT Junyuan_V1:Solving:LeftForeFoot
				{
					OFFSET 0.000000 3.234154 -0.000000
					CHANNELS 6 Xposition Yposition Zposition Xrotation Yrotation Zrotation
					JOINT Junyuan_V1:Solving:LeftToeBase
					{
						OFFSET 0.000000 0.000000 -12.665958
						CHANNELS 6 Xposition Yposition Zposition Xrotation Yrotation Zrotation
						JOINT Junyuan_V1:Solving:LeftToeBaseEnd
						{
							OFFSET 0.000000 0.000000 -4.326123
							CHANNELS 6 Xposition Yposition Zposition Xrotation Yrotation Zrotation
							End Site
							{
								OFFSET 0.000000 -4.326126 0.000000
							}
						}
					}
				}
			}
		}
	}
}
MOTION
Frames: 4
Frame Time: 0.041667
-16.300247 27.976980 -88.225182 90.149440 174.618499 -0.402341 -0.000005 -8.943202 2.778122 11.617698 -0.207841 -1.522235 0.000002 -9.944808 1.753536 -0.999303 0.165799 -0.297523 0.000000 -10.059796 0.880107 -5.384186 2.183331 -0.965737 -0.000002 -10.098252 0.000004 -3.890658 0.410319 -0.592992 -0.000003 -12.983459 -1.298339 5.201173 -0.609289 4.891203 -0.000002 -8.085144 -0.707361 -4.649810 -1.597996 -1.195856 -0.000001 -7.992702 -1.409328 -2.727309 0.362508 -1.324985 0.000002 -9.728058 0.000001 0.000000 -0.000000 -0.000000 -0.000004 -9.273891 -6.154360 -0.000008 21.948861 12.730370 -19.110817 -0.000017 0.000008 -0.485450 -21.202697 -90.298468 -27.916376 -0.000007 0.000000 26.704785 -22.051396 10.695182 -21.757090 -0.000001 -0.000001 -0.076191 -0.304181 -14.061272 -3.656423 2.766270 -2.718911 -0.000001 -0.000002 0.000003 -9.750548 -0.000002 0.062501 -0.000005 -0.000006 0.000001 -0.000000 -9.273876 -6.154360 -0.000005 -18.622104 -11.869155 19.110817 -0.000006 0.000005 -4.416781 29.914098 91.295348 27.916380 -0.000012 0.000000 24.042387 20.609005 -8.924138 21.757065 -0.000007 -0.000008 -0.605842 2.185016 15.501167 3.656489 2.766299 -2.718911 0.000000 0.000000 0.000003 9.750596 0.000003 0.062503 -0.000005 0.000001 0.000001 -8.521005 -0.000012 0.000003 2.591319 8.160075 -3.166062 0.000001 41.622875 -0.000001 1.893301 0.000000 0.000000 0.000004 37.258392 -0.000008 4.059282 -1.917172 7.656770 0.000002 3.234146 0.000003 -0.000002 -0.000000 0.000000 0.000003 0.000012 -12.665957 -4.249027 0.000001 0.000000 0.000001 -0.000007 -2.833061 0.000001 -0.000000 0.000000 8.520998 -0.000022 0.000003 -4.981736 -2.460517 -8.254477 -0.000001 41.622875 -0.000010 18.598364 0.000001 0.000001 -0.000008 37.258389 -0.000006 3.066813 13.337316 13.960408 0.000002 3.234138 -0.000001 -0.000003 -0.000000 -0.000003 0.000006 0.000009 -12.665959 -1.257241 -0.000000 -0.000000 -0.000004 -0.000007 -4.326130 0.000001 0.000000 -0.000001 
-16.298347 27.896772 -88.234711 90.192286 174.592462 -0.529096 -0.000001 -8.943193 2.778108 11.666883 -0.219332 -1.471380 -0.000002 -9.944828 1.753551 -0.982426 0.165314 -0.292760 -0.000001 -10.059830 0.880119 -5.377726 2.178865 -0.972780 0.000003 -10.098238 -0.000001 -3.874904 0.418046 -0.604613 -0.000003 -12.983404 -1.298360 5.203994 -0.618376 4.917585 0.000001 -8.085083 -0.707350 -4.643844 -1.610173 -1.182202 -0.000001 -7.992733 -1.409335 -2.750085 0.359132 -1.316851 0.000002 -9.728088 0.000001 0.000000 -0.000000 0.000000 -0.000005 -9.273876 -6.154377 -0.000008 21.845377 12.646139 -19.110813 0.000010 -0.000003 -0.448342 -22.054899 -90.368607 -27.916403 -0.000003 0.000011 26.354734 -22.313828 10.652898 -21.757080 -0.000011 0.000002 -0.140044 -0.540012 -14.538300 -3.656495 2.766283 -2.718904 0.000005 -0.000003 -0.000001 -9.750587 0.000011 0.062501 0.000001 -0.000000 0.000001 -0.000004 -9.273880 -6.154377 -0.000007 -18.590843 -11.735933 19.110826 -0.000005 0.000006 -4.320915 32.527885 91.248144 27.916391 -0.000007 -0.000000 22.999040 21.729137 -8.930505 21.757090 -0.000003 0.000002 -0.446049 1.647315 15.152899 3.656464 2.766275 -2.718911 -0.000005 -0.000010 0.000010 9.750572 -0.000005 0.062496 -0.000007 0.000000 0.000000 -8.521003 -0.000010 -0.000010 2.649433 8.321768 -3.048139 -0.000002 41.622894 -0.000001 1.961373 -0.000000 0.000000 0.000001 37.258404 -0.000005 3.980489 -2.007615 7.644872 -0.000000 3.234146 -0.000003 -0.000001 -0.000000 0.000000 -0.000000 0.000011 -12.665958 -4.305513 -0.000000 -0.000001 -0.000003 -0.000008 -2.833062 -0.000001 -0.000000 -0.000000 8.521003 0.000009 -0.000013 -5.271634 -2.419355 -8.173088 -0.000003 41.622898 -0.000007 19.286122 0.000001 -0.000001 0.000015 37.258369 0.000005 3.124081 13.399096 14.142088 -0.000002 3.234146 0.000005 0.000003 0.000000 0.000000 -0.000003 0.000010 -12.665949 -1.216469 -0.000000 0.000001 -0.000006 -0.000008 -4.326121 -0.000002 0.000001 0.000000 
-16.304928 27.826319 -88.242699 90.224251 174.579936 -0.647363 -0.000001 -8.943192 2.778120 11.714031 -0.233711 -1.436844 -0.000001 -9.944804 1.753535 -0.965179 0.164059 -0.289667 -0.000000 -10.059803 0.880121 -5.371912 2.170814 -0.970515 0.000001 -10.098242 0.000002 -3.864018 0.415620 -0.602348 -0.000000 -12.983461 -1.298339 5.203410 -0.624859 4.945530 -0.000000 -8.085139 -0.707352 -4.642969 -1.641531 -1.187124 0.000002 -7.992700 -1.409328 -2.754550 0.363854 -1.335256 0.000000 -9.728065 -0.000001 0.000000 -0.000001 -0.000000 -0.000002 -9.273899 -6.154349 -0.000009 21.731546 12.603174 -19.110821 -0.000027 0.000003 -0.467439 -22.955900 -90.462960 -27.916382 -0.000004 0.000011 26.039172 -22.495136 10.588251 -21.757051 -0.000001 -0.000000 -0.180406 -0.677449 -14.912221 -3.656444 2.766278 -2.718904 0.000003 -0.000003 -0.000005 -9.750571 0.000004 0.062515 0.000000 -0.000003 0.000001 0.000001 -9.273899 -6.154350 -0.000005 -18.461919 -11.715493 19.110832 -0.000019 0.000013 -4.421760 34.380440 91.417151 27.916368 -0.000006 0.000003 22.527921 22.443453 -8.998245 21.757084 -0.000013 -0.000002 -0.400422 1.477420 15.166034 3.656452 2.766271 -2.718911 -0.000010 0.000003 0.000005 9.750557 0.000004 0.062495 -0.000007 -0.000001 -0.000000 -8.521005 0.000011 0.000003 2.677552 8.433489 -2.927378 0.000001 41.622875 -0.000006 2.049582 0.000000 0.000000 0.000002 37.258373 -0.000012 3.872850 -2.068796 7.607424 -0.000001 3.234146 -0.000004 -0.000001 -0.000000 -0.000001 0.000001 -0.000006 -12.665954 -4.267835 -0.000000 -0.000001 -0.000000 -0.000008 -2.833065 0.000000 0.000000 0.000000 8.521004 -0.000004 0.000002 -5.583590 -2.370818 -8.095659 0.000001 41.622894 -0.000007 19.980964 0.000001 0.000001 0.000002 37.258396 -0.000011 3.168595 13.463874 14.382263 -0.000005 3.234146 -0.000000 0.000001 -0.000000 -0.000001 -0.000003 0.000002 -12.665948 -0.914467 -0.000000 -0.000002 0.000002 -0.000008 -4.326124 -0.000002 0.000000 -0.000001 
-16.307085 27.741365 -88.251694 90.270048 174.558735 -0.757543 0.000001 -8.943177 2.778128 11.757882 -0.249644 -1.395034 0.000001 -9.944815 1.753539 -0.949143 0.164090 -0.285387 -0.000002 -10.059802 0.880117 -5.357606 2.157578 -0.974207 -0.000002 -10.098238 -0.000001 -3.844699 0.411994 -0.609316 -0.000002 -12.983399 -1.298344 5.215305 -0.629616 4.959268 -0.000002 -8.085055 -0.707348 -4.652071 -1.648079 -1.190631 0.000001 -7.992710 -1.409324 -2.771375 0.360867 -1.328153 0.000002 -9.728058 0.000000 -0.000000 0.000000 0.000000 0.000001 -9.273865 -6.154353 -0.000011 21.624527 12.527971 -19.110825 -0.000032 0.000008 -0.431826 -23.827540 -90.479735 -27.916389 -0.000006 0.000005 25.812359 -22.769283 10.602850 -21.757076 -0.000009 0.000002 -0.235323 -0.856729 -15.360185 -3.656467 2.766278 -2.718919 -0.000002 0.000007 -0.000004 -9.750587 -0.000007 0.062497 -0.000002 0.000001 -0.000000 0.000004 -9.273869 -6.154354 -0.000008 -18.295927 -11.717826 19.110826 -0.000017 0.000008 -4.609428 35.590132 91.705692 27.916380 -0.000004 0.000003 22.842912 22.900564 -9.309113 21.757061 -0.000016 -0.000005 -0.441914 1.587176 15.561211 3.656473 2.766284 -2.718909 -0.000004 0.000000 0.000002 9.750581 -0.000006 0.062503 -0.000005 -0.000000 0.000001 -8.521005 0.000003 0.000002 2.739921 8.554175 -2.821300 -0.000001 41.622917 -0.000003 2.119976 0.000000 0.000000 -0.000003 37.258389 0.000004 3.776472 -2.149459 7.604622 0.000002 3.234146 0.000004 -0.000003 -0.000000 0.000000 0.000003 0.000001 -12.665951 -4.230769 0.000001 0.000001 0.000003 -0.000008 -2.833059 -0.000000 -0.000000 0.000000 8.521003 0.000015 0.000004 -5.877073 -2.335636 -8.031501 0.000001 41.622910 -0.000011 20.669421 0.000002 0.000001 -0.000001 37.258381 -0.000000 3.217890 13.537001 14.624577 -0.000001 3.234146 -0.000003 0.000003 0.000000 0.000000 0.000006 -0.000004 -12.665950 -0.855747 -0.000000 -0.000002 -0.000000 -0.000002 -4.326122 -0.000006 0.000000 -0.000001 
